# xmcd
#
# Track frame offsets: 
#        150
#        18263
#        35888
#        48888
#        69963
#        85550
#        100313
#        120625
#        138213
#        154700
#        176500
#        190563
#        207050
#        224675
#        242188
#        255788
#
# Disc length: 3637 seconds
#
# Revision: 4
# Processed by: cddbd v1.5.2PL0 Copyright (c) Steve Scherf et al.
# Submitted via: ExactAudioCopy v0.95b4
#
DISCID=cc0e3310
DTITLE=Gunter Gabriel - Die Gunter Gabriel Story
DYEAR=1988
DGENRE=Pop
TTITLE0=Intercity Linie Nummer 4
TTITLE1=Komm' Unter Meine Decke
TTITLE2=Hey Boﬂ, Ich Brauch' Mehr Geld
TTITLE3=Er Ist Ein Kerl (Der 30-Tonner Diesel)
TTITLE4=Ich Werd' Gesucht In Bremerhaven
TTITLE5=Deutschland Ist....
TTITLE6=M‰dchen Ab 30
TTITLE7=Rheinhausen, Du Darfst Nicht Untergeh'n
TTITLE8=Ich Bin CB-Funker
TTITLE9=Franky's Curry Station
TTITLE10=Ohne Moos, Nichts Los
TTITLE11=Willy Klein, Der Fernsehmann
TTITLE12=Mit Dem Hammer In Der Hand
TTITLE13=Ich Schlaf' Nicht Gern Allein
TTITLE14=Papa Trinkt Bier
TTITLE15=Hey Lisa (Hey Yvonne)
EXTD=VS-Musik Verlag GmbH, Hamburg\nimtrat, imt 300.013\nLC7507
EXTT0=
EXTT1=
EXTT2=
EXTT3=
EXTT4=
EXTT5=
EXTT6=
EXTT7=
EXTT8=
EXTT9=
EXTT10=
EXTT11=
EXTT12=
EXTT13=
EXTT14=
EXTT15=
PLAYORDER=
